<svg xmlns="http://www.w3.org/2000/svg" viewBox="0 0 620 720" role="img" aria-labelledby="title desc">
  <title id="title">Linear regression with multiple features TV budget plot</title>
  <desc id="desc">Scatter plot showing TV advertising budget against sales, with blue actual points and red predicted points.</desc>
  <rect width="620" height="720" fill="#ffffff"/>
  <rect x="100" y="64" width="458" height="566" fill="#fbfbfb" stroke="#202020" stroke-width="2"/>

  <g stroke="#d7d7d7" stroke-width="1">
    <line x1="100" y1="574" x2="558" y2="574"/>
    <line x1="100" y1="475" x2="558" y2="475"/>
    <line x1="100" y1="376" x2="558" y2="376"/>
    <line x1="100" y1="277" x2="558" y2="277"/>
    <line x1="100" y1="178" x2="558" y2="178"/>
    <line x1="100" y1="79" x2="558" y2="79"/>
    <line x1="119" y1="64" x2="119" y2="630"/>
    <line x1="272" y1="64" x2="272" y2="630"/>
    <line x1="425" y1="64" x2="425" y2="630"/>
  </g>

  <g fill="#061cff" opacity="0.95">
    <circle cx="116" cy="530" r="9"/><circle cx="124" cy="503" r="9"/><circle cx="133" cy="464" r="9"/>
    <circle cx="139" cy="408" r="9"/><circle cx="148" cy="374" r="9"/><circle cx="156" cy="394" r="9"/>
    <circle cx="166" cy="380" r="9"/><circle cx="178" cy="429" r="9"/><circle cx="188" cy="354" r="9"/>
    <circle cx="200" cy="395" r="9"/><circle cx="209" cy="355" r="9"/><circle cx="221" cy="328" r="9"/>
    <circle cx="233" cy="360" r="9"/><circle cx="246" cy="314" r="9"/><circle cx="258" cy="344" r="9"/>
    <circle cx="270" cy="300" r="9"/><circle cx="283" cy="331" r="9"/><circle cx="296" cy="278" r="9"/>
    <circle cx="309" cy="318" r="9"/><circle cx="321" cy="252" r="9"/><circle cx="334" cy="287" r="9"/>
    <circle cx="347" cy="241" r="9"/><circle cx="360" cy="276" r="9"/><circle cx="372" cy="216" r="9"/>
    <circle cx="386" cy="244" r="9"/><circle cx="398" cy="205" r="9"/><circle cx="411" cy="253" r="9"/>
    <circle cx="423" cy="189" r="9"/><circle cx="436" cy="220" r="9"/><circle cx="449" cy="172" r="9"/>
    <circle cx="462" cy="205" r="9"/><circle cx="475" cy="154" r="9"/><circle cx="487" cy="197" r="9"/>
    <circle cx="500" cy="140" r="9"/><circle cx="514" cy="185" r="9"/><circle cx="529" cy="134" r="9"/>
    <circle cx="543" cy="156" r="9"/>
    <circle cx="119" cy="362" r="9"/><circle cx="134" cy="350" r="9"/><circle cx="154" cy="337" r="9"/>
    <circle cx="181" cy="322" r="9"/><circle cx="213" cy="300" r="9"/><circle cx="249" cy="283" r="9"/>
    <circle cx="292" cy="258" r="9"/><circle cx="338" cy="233" r="9"/><circle cx="384" cy="209" r="9"/>
    <circle cx="428" cy="188" r="9"/><circle cx="470" cy="168" r="9"/><circle cx="518" cy="147" r="9"/>
  </g>

  <g stroke="#ff1717" stroke-width="4" stroke-linecap="round" opacity="0.95">
    <path d="M112 581 l16 16 M128 581 l-16 16"/><path d="M121 518 l16 16 M137 518 l-16 16"/>
    <path d="M137 487 l16 16 M153 487 l-16 16"/><path d="M150 440 l16 16 M166 440 l-16 16"/>
    <path d="M166 410 l16 16 M182 410 l-16 16"/><path d="M181 392 l16 16 M197 392 l-16 16"/>
    <path d="M197 371 l16 16 M213 371 l-16 16"/><path d="M212 349 l16 16 M228 349 l-16 16"/>
    <path d="M228 328 l16 16 M244 328 l-16 16"/><path d="M243 304 l16 16 M259 304 l-16 16"/>
    <path d="M260 286 l16 16 M276 286 l-16 16"/><path d="M276 268 l16 16 M292 268 l-16 16"/>
    <path d="M291 250 l16 16 M307 250 l-16 16"/><path d="M307 234 l16 16 M323 234 l-16 16"/>
    <path d="M323 216 l16 16 M339 216 l-16 16"/><path d="M338 198 l16 16 M354 198 l-16 16"/>
    <path d="M354 180 l16 16 M370 180 l-16 16"/><path d="M370 164 l16 16 M386 164 l-16 16"/>
    <path d="M386 148 l16 16 M402 148 l-16 16"/><path d="M402 132 l16 16 M418 132 l-16 16"/>
    <path d="M418 116 l16 16 M434 116 l-16 16"/><path d="M434 102 l16 16 M450 102 l-16 16"/>
    <path d="M449 88 l16 16 M465 88 l-16 16"/><path d="M465 76 l16 16 M481 76 l-16 16"/>
    <path d="M482 64 l16 16 M498 64 l-16 16"/><path d="M498 92 l16 16 M514 92 l-16 16"/>
    <path d="M514 124 l16 16 M530 124 l-16 16"/><path d="M530 172 l16 16 M546 172 l-16 16"/>
    <path d="M442 236 l16 16 M458 236 l-16 16"/><path d="M404 282 l16 16 M420 282 l-16 16"/>
    <path d="M362 310 l16 16 M378 310 l-16 16"/><path d="M318 338 l16 16 M334 338 l-16 16"/>
    <path d="M275 364 l16 16 M291 364 l-16 16"/><path d="M230 392 l16 16 M246 392 l-16 16"/>
  </g>

  <g font-family="Arial, Helvetica, sans-serif" fill="#222">
    <text x="329" y="40" font-size="32" text-anchor="middle">TV</text>
    <text x="329" y="704" font-size="25" text-anchor="middle">TV Budget</text>
    <text x="32" y="347" font-size="25" transform="rotate(-90 32 347)" text-anchor="middle">Sales</text>
    <g font-size="22">
      <text x="112" y="668">0</text>
      <text x="255" y="668">100</text>
      <text x="408" y="668">200</text>
      <text x="526" y="668">300</text>
      <text x="55" y="581">5</text>
      <text x="43" y="482">10</text>
      <text x="43" y="383">15</text>
      <text x="43" y="284">20</text>
      <text x="43" y="185">25</text>
    </g>
  </g>
</svg>
