<svg xmlns="http://www.w3.org/2000/svg" viewBox="0 0 900 620" role="img" aria-labelledby="title desc">
  <title id="title">Logistic regression decision boundary on social network ads</title>
  <desc id="desc">Scatter plot of purchased and not purchased users by age and estimated salary with a curved decision boundary.</desc>
  <rect width="900" height="620" fill="#ffffff"/>
  <rect x="86" y="42" width="770" height="515" fill="#fbfbfb" stroke="#202020" stroke-width="2"/>

  <g stroke="#d8d8d8" stroke-width="1">
    <line x1="86" y1="511" x2="856" y2="511"/>
    <line x1="86" y1="431" x2="856" y2="431"/>
    <line x1="86" y1="351" x2="856" y2="351"/>
    <line x1="86" y1="271" x2="856" y2="271"/>
    <line x1="86" y1="191" x2="856" y2="191"/>
    <line x1="86" y1="111" x2="856" y2="111"/>
    <line x1="145" y1="42" x2="145" y2="557"/>
    <line x1="260" y1="42" x2="260" y2="557"/>
    <line x1="375" y1="42" x2="375" y2="557"/>
    <line x1="490" y1="42" x2="490" y2="557"/>
    <line x1="605" y1="42" x2="605" y2="557"/>
    <line x1="720" y1="42" x2="720" y2="557"/>
    <line x1="835" y1="42" x2="835" y2="557"/>
  </g>

  <path d="M86 144 C215 216 347 242 463 273 C612 315 616 414 492 495 C446 525 408 545 373 557" fill="none" stroke="#4b005b" stroke-width="5" stroke-linecap="round"/>

  <g fill="#1f77b4" opacity="0.95">
    <circle cx="305" cy="102" r="8"/><circle cx="345" cy="118" r="8"/><circle cx="392" cy="68" r="8"/>
    <circle cx="431" cy="137" r="8"/><circle cx="462" cy="84" r="8"/><circle cx="528" cy="112" r="8"/>
    <circle cx="607" cy="121" r="8"/><circle cx="642" cy="72" r="8"/><circle cx="706" cy="113" r="8"/>
    <circle cx="760" cy="91" r="8"/><circle cx="815" cy="103" r="8"/><circle cx="837" cy="160" r="8"/>
    <circle cx="389" cy="205" r="8"/><circle cx="435" cy="244" r="8"/><circle cx="514" cy="201" r="8"/>
    <circle cx="606" cy="258" r="8"/><circle cx="674" cy="231" r="8"/><circle cx="760" cy="239" r="8"/>
    <circle cx="828" cy="276" r="8"/><circle cx="558" cy="338" r="8"/><circle cx="593" cy="372" r="8"/>
    <circle cx="631" cy="355" r="8"/><circle cx="686" cy="430" r="8"/><circle cx="739" cy="505" r="8"/>
    <circle cx="807" cy="438" r="8"/><circle cx="850" cy="506" r="8"/><circle cx="587" cy="491" r="8"/>
    <circle cx="628" cy="505" r="8"/><circle cx="682" cy="518" r="8"/><circle cx="542" cy="525" r="8"/>
  </g>

  <g fill="#ff7f0e" stroke="#ff7f0e" stroke-width="4" stroke-linecap="round" opacity="0.95">
    <path d="M116 432 l13 13 M129 432 l-13 13"/><path d="M137 472 l13 13 M150 472 l-13 13"/>
    <path d="M112 500 l13 13 M125 500 l-13 13"/><path d="M167 515 l13 13 M180 515 l-13 13"/>
    <path d="M197 455 l13 13 M210 455 l-13 13"/><path d="M237 494 l13 13 M250 494 l-13 13"/>
    <path d="M274 445 l13 13 M287 445 l-13 13"/><path d="M321 511 l13 13 M334 511 l-13 13"/>
    <path d="M363 469 l13 13 M376 469 l-13 13"/><path d="M414 501 l13 13 M427 501 l-13 13"/>
    <path d="M142 300 l13 13 M155 300 l-13 13"/><path d="M181 326 l13 13 M194 326 l-13 13"/>
    <path d="M222 308 l13 13 M235 308 l-13 13"/><path d="M267 341 l13 13 M280 341 l-13 13"/>
    <path d="M316 322 l13 13 M329 322 l-13 13"/><path d="M360 350 l13 13 M373 350 l-13 13"/>
    <path d="M407 329 l13 13 M420 329 l-13 13"/><path d="M462 344 l13 13 M475 344 l-13 13"/>
    <path d="M122 190 l13 13 M135 190 l-13 13"/><path d="M190 202 l13 13 M203 202 l-13 13"/>
    <path d="M255 229 l13 13 M268 229 l-13 13"/><path d="M333 196 l13 13 M346 196 l-13 13"/>
    <path d="M410 226 l13 13 M423 226 l-13 13"/><path d="M558 267 l13 13 M571 267 l-13 13"/>
    <path d="M662 178 l13 13 M675 178 l-13 13"/><path d="M735 115 l13 13 M748 115 l-13 13"/>
    <path d="M836 458 l13 13 M849 458 l-13 13"/>
  </g>

  <g font-family="Arial, Helvetica, sans-serif" fill="#222">
    <text x="472" y="604" font-size="24" text-anchor="middle">Age</text>
    <text x="30" y="304" font-size="24" transform="rotate(-90 30 304)" text-anchor="middle">Estimated Salary</text>
    <g font-size="18">
      <text x="132" y="584">20</text><text x="247" y="584">25</text><text x="362" y="584">30</text>
      <text x="477" y="584">35</text><text x="592" y="584">40</text><text x="707" y="584">45</text>
      <text x="822" y="584">50</text>
      <text x="36" y="518">20000</text><text x="36" y="438">40000</text><text x="36" y="358">60000</text>
      <text x="36" y="278">80000</text><text x="25" y="198">100000</text><text x="25" y="118">120000</text>
    </g>
  </g>

  <g font-family="Arial, Helvetica, sans-serif">
    <rect x="120" y="60" width="230" height="82" rx="4" fill="#ffffff" opacity="0.92" stroke="#d4d4d4"/>
    <circle cx="146" cy="87" r="8" fill="#1f77b4"/>
    <text x="170" y="94" font-size="22" fill="#222">Purchased</text>
    <path d="M138 117 l16 16 M154 117 l-16 16" stroke="#ff7f0e" stroke-width="4" stroke-linecap="round"/>
    <text x="170" y="134" font-size="22" fill="#222">Not Purchased</text>
  </g>
</svg>
